# xmcd CD database file
#
# Track frame offsets:
#	150
#	25220
#	51035
#	81427
#	110417
#	133762
#	155217
#
# Disc length: 2288 seconds
#
# Revision: 0
# Processed by: cddbd v1.5.1PL0 Copyright (c) Steve Scherf et al.
# Submitted via: CDex 1.51
#
DISCID=5c08ee07
DTITLE=Jimmy Smith - The Incredible Jimmy Smith At The Organ Vol.3
DYEAR=1956
DGENRE=Jazz
TTITLE0=Judo Mambo
TTITLE1=Willow Weep For Me
TTITLE2=Lover Come Back To Me
TTITLE3=Well You Needn't
TTITLE4=Fiddlin' The Minors
TTITLE5=Autumn Leaves
TTITLE6=I Cover The Waterfront
EXTD=YEAR: 1956
EXTT0=
EXTT1=
EXTT2=
EXTT3=
EXTT4=
EXTT5=
EXTT6=
PLAYORDER=
